<?xml version="1.0"?>
<svg width="256" height="257" xmlns="http://www.w3.org/2000/svg" xmlns:svg="http://www.w3.org/2000/svg" class="iconify iconify--logos" preserveAspectRatio="xMidYMid meet">
 <defs>
  <linearGradient id="IconifyId1813088fe1fbc01fb467" x1="43.376%" x2="50.316%" y1="2.242%" y2="89.03%">
   <stop offset="0%" stop-color="#FFEA83"/>
   <stop offset="8.333%" stop-color="#FFDD35"/>
   <stop offset="100%" stop-color="#FFA800"/>
  </linearGradient>
 </defs>
 <g class="layer">
  <title>Layer 1</title>
  <path d="m181.43,11.06l-88.99,17.44a3.27,3.27 0 0 0 -2.63,3.02l-5.48,92.45a3.27,3.27 0 0 0 4,3.38l24.78,-5.72c2.31,-0.53 4.41,1.51 3.93,3.84l-7.36,36.05c-0.49,2.42 1.78,4.5 4.15,3.78l15.31,-4.65c2.37,-0.72 4.65,1.36 4.15,3.79l-11.7,56.62c-0.73,3.54 3.98,5.47 5.94,2.43l1.31,-2.02l72.52,-144.72c1.22,-2.43 -0.88,-5.19 -3.54,-4.68l-25.5,4.93c-2.4,0.46 -4.44,-1.77 -3.76,-4.12l16.64,-57.7c0.68,-2.35 -1.37,-4.59 -3.77,-4.12z" fill="url(#IconifyId1813088fe1fbc01fb467)" id="svg_2"/>
 </g>
</svg>